# xmcd
#
# Track frame offsets:
#	150
#	13502
#	29586
#	42702
#	59706
#	76447
#	93473
#	105574
#	118271
#	135704
#	152722
#	168722
#	183131
#	200642
#	214025
#	230169
#	245867
#	263371
#	279932
#	298560
#	316178
#	332414
#
# Disc length: 4674 seconds
#
# Revision: 2
# Processed by: cddbd v1.5.2PL0 Copyright (c) Steve Scherf et al.
# Submitted via: EasyCDDAExtractor 11.5.0.1
#
DISCID=47124016
DTITLE=Various Artist - NCT 127
DYEAR=2009
DGENRE=Country
TTITLE0=George Strait - Twang
TTITLE1=Rodney Atkins - Chasin' Girls
TTITLE2=Joe Nichols - Gimme That Girl
TTITLE3=Blake Shelton ft. Trace Adkins - Hillbilly Bone
TTITLE4=Matt Kennon - The Call
TTITLE5=Toby Keith - Cryin' For Me (Wayman's Song)
TTITLE6=Justin Moore - Backwoods
TTITLE7=Eric Church - Hell On The Heart
TTITLE8=Bucky Covington - Gotta Be Somebody
TTITLE9=Darren Kozelsky - Real Superman
TTITLE10=Fast Ryde - Make It Rain
TTITLE11=Gretchen Wilson - Work Hard, Play Harder
TTITLE12=Jack Ingram ft. Patty Griffin - Seeing Stars
TTITLE13=Randy Houser - Whistlin' Dixie
TTITLE14=Burns and Poe - It's Always A Woman
TTITLE15=Chris Young - The Man I Want To Be
TTITLE16=Deric Ruttan - Sing That Song Again
TTITLE17=Nathan Lee Jackson - Desperate Man
TTITLE18=Trent Tomlinson - Angels Like Her
TTITLE19=Brad Wolf - Tan Lines
TTITLE20=Telluride - Stay
TTITLE21=Sugarland - Gold and Green
EXTD=YEAR: 2009
EXTT0=
EXTT1=
EXTT2=
EXTT3=
EXTT4=
EXTT5=
EXTT6=
EXTT7=
EXTT8=
EXTT9=
EXTT10=
EXTT11=
EXTT12=
EXTT13=
EXTT14=
EXTT15=
EXTT16=
EXTT17=
EXTT18=
EXTT19=
EXTT20=
EXTT21=
PLAYORDER=
